<mxfile host="app.diagrams.net" modified="2023-10-20T13:51:54.072Z" agent="Mozilla/5.0 (Windows NT 10.0; Win64; x64; rv:109.0) Gecko/20100101 Firefox/118.0" etag="9EWj3kdI0_K5icSU5C71" version="22.0.6" type="github">
  <diagram name="Page-1" id="A2HgGOYnbQZKl4bB1F2a">
    <mxGraphModel dx="1050" dy="531" grid="1" gridSize="10" guides="1" tooltips="1" connect="1" arrows="1" fold="1" page="1" pageScale="1" pageWidth="827" pageHeight="1169" math="0" shadow="0">
      <root>
        <mxCell id="0" />
        <mxCell id="1" parent="0" />
        <mxCell id="Z3QHluoulCaiBbV5o6jy-8" style="edgeStyle=orthogonalEdgeStyle;rounded=0;orthogonalLoop=1;jettySize=auto;html=1;entryX=0.5;entryY=0;entryDx=0;entryDy=0;strokeWidth=3;" edge="1" parent="1" source="Z3QHluoulCaiBbV5o6jy-1" target="Z3QHluoulCaiBbV5o6jy-2">
          <mxGeometry relative="1" as="geometry" />
        </mxCell>
        <mxCell id="Z3QHluoulCaiBbV5o6jy-1" value="&lt;div&gt;Problème/&lt;/div&gt;&lt;div&gt;Contexte&lt;br&gt;&lt;/div&gt;" style="ellipse;whiteSpace=wrap;html=1;fillColor=#e1d5e7;strokeColor=#9673a6;" vertex="1" parent="1">
          <mxGeometry x="221" y="94" width="80" height="70" as="geometry" />
        </mxCell>
        <mxCell id="Z3QHluoulCaiBbV5o6jy-9" style="edgeStyle=orthogonalEdgeStyle;rounded=0;orthogonalLoop=1;jettySize=auto;html=1;entryX=0.5;entryY=0;entryDx=0;entryDy=0;strokeWidth=3;" edge="1" parent="1" source="Z3QHluoulCaiBbV5o6jy-2" target="Z3QHluoulCaiBbV5o6jy-3">
          <mxGeometry relative="1" as="geometry" />
        </mxCell>
        <mxCell id="Z3QHluoulCaiBbV5o6jy-2" value="&lt;div&gt;Objectifs&lt;br&gt;&lt;/div&gt;" style="ellipse;whiteSpace=wrap;html=1;fillColor=#e1d5e7;strokeColor=#9673a6;" vertex="1" parent="1">
          <mxGeometry x="221" y="202" width="80" height="70" as="geometry" />
        </mxCell>
        <mxCell id="Z3QHluoulCaiBbV5o6jy-10" style="edgeStyle=orthogonalEdgeStyle;rounded=0;orthogonalLoop=1;jettySize=auto;html=1;entryX=0;entryY=0.5;entryDx=0;entryDy=0;exitX=0.5;exitY=1;exitDx=0;exitDy=0;strokeWidth=3;" edge="1" parent="1" source="Z3QHluoulCaiBbV5o6jy-3" target="Z3QHluoulCaiBbV5o6jy-4">
          <mxGeometry relative="1" as="geometry" />
        </mxCell>
        <mxCell id="Z3QHluoulCaiBbV5o6jy-3" value="Moyens" style="ellipse;whiteSpace=wrap;html=1;fillColor=#e1d5e7;strokeColor=#9673a6;" vertex="1" parent="1">
          <mxGeometry x="221" y="309" width="80" height="70" as="geometry" />
        </mxCell>
        <mxCell id="Z3QHluoulCaiBbV5o6jy-11" style="edgeStyle=orthogonalEdgeStyle;rounded=0;orthogonalLoop=1;jettySize=auto;html=1;strokeWidth=3;entryX=0.5;entryY=0.929;entryDx=0;entryDy=0;entryPerimeter=0;" edge="1" parent="1" source="Z3QHluoulCaiBbV5o6jy-4" target="Z3QHluoulCaiBbV5o6jy-5">
          <mxGeometry relative="1" as="geometry">
            <mxPoint x="493" y="384" as="targetPoint" />
          </mxGeometry>
        </mxCell>
        <mxCell id="Z3QHluoulCaiBbV5o6jy-4" value="Activités" style="ellipse;whiteSpace=wrap;html=1;fillColor=#e1d5e7;strokeColor=#9673a6;" vertex="1" parent="1">
          <mxGeometry x="343" y="404" width="80" height="70" as="geometry" />
        </mxCell>
        <mxCell id="Z3QHluoulCaiBbV5o6jy-12" style="edgeStyle=orthogonalEdgeStyle;rounded=0;orthogonalLoop=1;jettySize=auto;html=1;entryX=0.5;entryY=1;entryDx=0;entryDy=0;strokeWidth=3;" edge="1" parent="1" source="Z3QHluoulCaiBbV5o6jy-5" target="Z3QHluoulCaiBbV5o6jy-6">
          <mxGeometry relative="1" as="geometry" />
        </mxCell>
        <mxCell id="Z3QHluoulCaiBbV5o6jy-5" value="Réalisation" style="ellipse;whiteSpace=wrap;html=1;fillColor=#e1d5e7;strokeColor=#9673a6;" vertex="1" parent="1">
          <mxGeometry x="463" y="324" width="80" height="70" as="geometry" />
        </mxCell>
        <mxCell id="Z3QHluoulCaiBbV5o6jy-13" style="edgeStyle=orthogonalEdgeStyle;rounded=0;orthogonalLoop=1;jettySize=auto;html=1;entryX=0.5;entryY=1;entryDx=0;entryDy=0;strokeWidth=3;" edge="1" parent="1" source="Z3QHluoulCaiBbV5o6jy-6" target="Z3QHluoulCaiBbV5o6jy-7">
          <mxGeometry relative="1" as="geometry" />
        </mxCell>
        <mxCell id="Z3QHluoulCaiBbV5o6jy-6" value="Résultats" style="ellipse;whiteSpace=wrap;html=1;fillColor=#e1d5e7;strokeColor=#9673a6;" vertex="1" parent="1">
          <mxGeometry x="463" y="209" width="80" height="70" as="geometry" />
        </mxCell>
        <mxCell id="Z3QHluoulCaiBbV5o6jy-7" value="Effets" style="ellipse;whiteSpace=wrap;html=1;fillColor=#e1d5e7;strokeColor=#9673a6;" vertex="1" parent="1">
          <mxGeometry x="463" y="94" width="80" height="70" as="geometry" />
        </mxCell>
      </root>
    </mxGraphModel>
  </diagram>
</mxfile>
